<?xml version="1.0" standalone="no"?>
<!DOCTYPE svg PUBLIC "-//W3C//DTD SVG 20010904//EN"
 "http://www.w3.org/TR/2001/REC-SVG-20010904/DTD/svg10.dtd">
<svg version="1.0" xmlns="http://www.w3.org/2000/svg"
 width="1280.000000pt" height="1126.000000pt" viewBox="0 0 1280.000000 1126.000000"
 preserveAspectRatio="xMidYMid meet">
<metadata>
Created by potrace 1.15, written by Peter Selinger 2001-2017
</metadata>
<g transform="translate(0.000000,1126.000000) scale(0.100000,-0.100000)"
fill="#000000" stroke="none">
<path d="M0 7140 l0 -4120 1865 0 1865 0 0 -128 0 -129 197 -6 c108 -4 577 -7
1042 -7 465 0 851 -4 858 -8 12 -8 15 3 -262 -1117 -144 -584 -271 -1108 -280
-1157 -4 -21 -13 -42 -20 -48 -8 -6 -60 -22 -117 -35 -57 -13 -137 -34 -178
-48 -61 -21 -103 -27 -225 -32 -82 -4 -966 -10 -1963 -14 -997 -4 -1815 -10
-1817 -13 -3 -3 -8 -28 -12 -56 l-6 -51 1974 -3 1974 -4 96 -27 c164 -46 485
-90 894 -123 177 -14 296 -16 750 -11 534 6 762 18 1040 52 240 29 473 72 530
97 24 10 409 13 2002 16 l1972 3 -6 52 c-3 29 -7 54 -9 56 -2 2 -881 8 -1954
12 l-1950 8 -87 31 c-48 17 -128 40 -177 51 -50 11 -92 22 -94 23 -2 2 -21 77
-42 167 -21 90 -64 268 -95 394 -31 127 -78 320 -105 430 -27 110 -88 358
-135 550 -120 486 -195 795 -195 800 0 3 474 5 1053 5 578 0 1058 4 1065 9 10
6 12 38 10 134 l-3 127 1673 0 1672 0 0 4120 0 4120 -6400 0 -6400 0 0 -4120z
m6415 -5578 c-3 -3 -60 -8 -127 -12 -68 -4 -169 -13 -225 -21 -56 -7 -106 -10
-110 -6 -7 7 106 490 225 957 l67 265 85 5 85 5 3 -594 c1 -327 0 -596 -3
-599z m507 1180 c9 -9 21 -53 144 -567 125 -520 154 -648 150 -653 -2 -2 -68
4 -147 12 -79 9 -166 17 -194 19 l-50 2 -7 45 c-9 62 -10 1145 0 1154 8 9 93
-1 104 -12z m-502 -1383 l0 -52 -157 6 c-89 4 -197 14 -248 25 l-90 18 66 12
c63 11 216 28 324 35 118 8 105 13 105 -44z m676 20 c111 -16 120 -25 38 -38
-71 -11 -298 -41 -315 -41 -5 0 -9 23 -9 52 l0 51 103 -6 c57 -4 139 -12 183
-18z m-996 -209 c96 -11 207 -21 245 -22 l70 -3 3 -326 3 -327 -113 -6 c-289
-15 -620 -28 -623 -24 -4 3 165 682 179 724 2 6 17 9 33 8 15 -2 107 -13 203
-24z m1296 -343 c50 -199 89 -365 85 -368 -3 -4 -89 0 -191 7 -102 7 -251 13
-332 13 l-148 1 0 334 0 333 103 7 c56 4 165 15 242 25 77 10 142 16 145 14 3
-2 46 -167 96 -366z"/>
</g>
</svg>
